<svg width="38" height="25" viewBox="0 0 38 25" fill="none" xmlns="http://www.w3.org/2000/svg">
<path d="M35.5208 10.4167H1.97917C0.886103 10.4167 0 11.3028 0 12.3958V12.6042C0 13.6972 0.886103 14.5833 1.97917 14.5833H35.5208C36.6139 14.5833 37.5 13.6972 37.5 12.6042V12.3958C37.5 11.3028 36.6139 10.4167 35.5208 10.4167Z" fill="white"/>
<path d="M35.5208 20.8333H1.97917C0.886103 20.8333 0 21.7194 0 22.8125V23.0208C0 24.1139 0.886103 25 1.97917 25H35.5208C36.6139 25 37.5 24.1139 37.5 23.0208V22.8125C37.5 21.7194 36.6139 20.8333 35.5208 20.8333Z" fill="white"/>
<path d="M35.5208 0H1.97917C0.886103 0 0 0.886103 0 1.97917V2.1875C0 3.28056 0.886103 4.16667 1.97917 4.16667H35.5208C36.6139 4.16667 37.5 3.28056 37.5 2.1875V1.97917C37.5 0.886103 36.6139 0 35.5208 0Z" fill="white"/>
</svg>
