<svg width="190" height="190" viewBox="0 0 190 190" fill="none" xmlns="http://www.w3.org/2000/svg">
<path d="M129.354 73.8027C132.552 70.8216 132.728 65.8122 129.747 62.6138C126.766 59.4153 121.757 59.2391 118.558 62.2201L95.3935 83.8106L73.8027 60.6455C70.8216 57.4471 65.8122 57.2708 62.6138 60.2519C59.4153 63.2329 59.2391 68.2423 62.2201 71.4408L83.8106 94.6058L60.6455 116.197C57.4471 119.178 57.2708 124.187 60.2519 127.386C63.2329 130.584 68.2423 130.76 71.4408 127.779L94.6058 106.189L116.197 129.354C119.178 132.552 124.187 132.728 127.386 129.747C130.584 126.766 130.76 121.757 127.779 118.558L106.189 95.3935L129.354 73.8027Z" fill="white"/>
<path fill-rule="evenodd" clip-rule="evenodd" d="M7.91675 94.9998C7.91675 46.9051 46.9053 7.9165 95.0001 7.9165C143.095 7.9165 182.083 46.9051 182.083 94.9998C182.083 143.094 143.095 182.083 95.0001 182.083C46.9053 182.083 7.91675 143.094 7.91675 94.9998ZM95.0001 166.25C55.6498 166.25 23.7501 134.35 23.7501 94.9998C23.7501 55.6496 55.6498 23.7498 95.0001 23.7498C134.351 23.7498 166.25 55.6496 166.25 94.9998C166.25 134.35 134.351 166.25 95.0001 166.25Z" fill="white"/>
</svg>
