<svg width="26" height="25" viewBox="0 0 26 25" fill="none" xmlns="http://www.w3.org/2000/svg">
<path d="M13 0C9.60192 0 9.17843 0.0164083 7.84857 0.0726653C6.51325 0.138299 5.61001 0.345356 4.81304 0.654769C3.99106 0.976685 3.29097 1.40408 2.59948 2.09948C1.9033 2.79097 1.472 3.49106 1.15477 4.31304C0.845356 5.11001 0.638299 6.01325 0.572665 7.34857C0.512502 8.67921 0.5 9.10192 0.5 12.5C0.5 15.8981 0.516408 16.3216 0.572665 17.6514C0.638299 18.9828 0.845356 19.89 1.15477 20.687C1.47668 21.5089 1.90408 22.209 2.59948 22.9005C3.29097 23.5967 3.99106 24.028 4.81304 24.3452C5.61001 24.6507 6.51716 24.8617 7.84857 24.9273C9.17921 24.9875 9.60192 25 13 25C16.3981 25 16.8216 24.9836 18.1514 24.9273C19.4828 24.8617 20.39 24.65 21.187 24.3452C22.0089 24.0233 22.709 23.5959 23.4005 22.9005C24.0967 22.209 24.528 21.5128 24.8452 20.687C25.1507 19.89 25.3617 18.9828 25.4273 17.6514C25.4875 16.3208 25.5 15.8981 25.5 12.5C25.5 9.10192 25.4836 8.67843 25.4273 7.34857C25.3617 6.01716 25.15 5.10533 24.8452 4.31304C24.5233 3.49106 24.0959 2.79097 23.4005 2.09948C22.709 1.4033 22.0128 0.971996 21.187 0.654769C20.39 0.345356 19.4828 0.138299 18.1514 0.0726653C16.8208 0.0125016 16.3981 0 13 0ZM13 2.25028C16.3371 2.25028 16.7356 2.26669 18.0545 2.32295C19.2711 2.37998 19.9337 2.58314 20.3736 2.75503C20.9604 2.9824 21.3706 3.25119 21.8144 3.6903C22.2496 4.12552 22.5184 4.54041 22.7457 5.1272C22.9176 5.5671 23.1208 6.22968 23.1778 7.44624C23.2341 8.76516 23.2505 9.16443 23.2505 12.5008C23.2505 15.8371 23.2341 16.2364 23.1731 17.5553C23.1075 18.7719 22.9044 19.4345 22.7332 19.8744C22.4965 20.4612 22.2324 20.8714 21.7964 21.3152C21.3565 21.7504 20.9377 22.0192 20.3556 22.2465C19.9212 22.4184 19.2492 22.6216 18.028 22.6786C16.702 22.7349 16.3114 22.7513 12.9656 22.7513C9.61989 22.7513 9.23 22.7349 7.90249 22.6739C6.68593 22.6083 6.01475 22.4051 5.57485 22.234C4.98103 21.9973 4.57395 21.7332 4.13795 21.2972C3.69806 20.8573 3.41833 20.4385 3.20268 19.8564C3.02766 19.422 2.82763 18.75 2.76278 17.5288C2.71825 16.2184 2.69715 15.8121 2.69715 12.482C2.69715 9.15349 2.71825 8.74641 2.76278 7.41968C2.82763 6.19843 3.02766 5.52803 3.20268 5.09204C3.41833 4.49744 3.69884 4.09114 4.13795 3.65124C4.57317 3.21603 4.98103 2.93474 5.57485 2.7144C6.01475 2.54329 6.66952 2.34014 7.89077 2.27919C9.21671 2.23153 9.60739 2.21434 12.9484 2.21434L13 2.25028ZM13 6.08435C9.4519 6.08435 6.58279 8.95737 6.58279 12.5016C6.58279 16.0497 9.45581 18.9188 13 18.9188C16.5481 18.9188 19.4172 16.0458 19.4172 12.5016C19.4172 8.95346 16.5442 6.08435 13 6.08435ZM13 16.6685C10.6966 16.6685 8.83307 14.805 8.83307 12.5016C8.83307 10.1981 10.6966 8.33463 13 8.33463C15.3034 8.33463 17.1669 10.1981 17.1669 12.5016C17.1669 14.805 15.3034 16.6685 13 16.6685ZM21.176 5.82807C21.176 6.65864 20.5002 7.32904 19.6735 7.32904C18.8429 7.32904 18.1725 6.65786 18.1725 5.82807C18.1725 5.00219 18.8476 4.33023 19.6735 4.33023C20.4994 4.33023 21.176 5.00219 21.176 5.82807Z" fill="#DFDFDF"/>
</svg>
