<svg width="23" height="25" viewBox="0 0 23 25" fill="none" xmlns="http://www.w3.org/2000/svg">
<path d="M12.2986 0.0210949C13.6619 0 15.0175 0.0125007 16.3714 0C16.4535 1.59462 17.0269 3.21892 18.1942 4.34633C19.3591 5.50186 21.0068 6.03079 22.6101 6.20971V10.4045C21.1076 10.3552 19.5982 10.0427 18.2348 9.39581C17.641 9.12705 17.0879 8.78094 16.5464 8.42701C16.5394 11.4709 16.559 14.5109 16.5269 17.5423C16.4457 18.9987 15.9652 20.448 15.1182 21.648C13.7557 23.6458 11.3907 24.9482 8.96167 24.9888C7.47175 25.074 5.98338 24.6677 4.71379 23.9192C2.60977 22.6786 1.12922 20.4073 0.913583 17.9697C0.888581 17.4486 0.879987 16.9282 0.901082 16.4196C1.08859 14.4375 2.06911 12.5413 3.59107 11.2514C5.31616 9.74896 7.7327 9.03329 9.99532 9.45675C10.0164 10.9998 9.95469 12.5413 9.95469 14.0843C8.92104 13.75 7.71316 13.8437 6.80999 14.4711C6.15058 14.8984 5.64977 15.5532 5.38882 16.2938C5.17319 16.822 5.23491 17.4087 5.24741 17.9697C5.49508 19.6792 7.13892 21.116 8.8937 20.9605C10.057 20.948 11.1719 20.273 11.7782 19.2846C11.9743 18.9385 12.1939 18.5846 12.2056 18.1775C12.3079 16.3142 12.2673 14.4586 12.2798 12.5952C12.2884 8.39576 12.2673 4.20804 12.2993 0.0218762L12.2986 0.0210949Z" fill="#DFDFDF"/>
</svg>
