<svg width="50" height="35" viewBox="0 0 50 35" fill="none" xmlns="http://www.w3.org/2000/svg">
<path d="M8 2.5C8 1.11929 9.11929 0 10.5 0H40.5C41.8807 0 43 1.11929 43 2.5C43 3.88071 41.8807 5 40.5 5H10.5C9.11929 5 8 3.88071 8 2.5Z" fill="#7FB17F"/>
<path d="M0 17.5C0 16.1193 1.11929 15 2.5 15H47.5C48.8807 15 50 16.1193 50 17.5C50 18.8807 48.8807 20 47.5 20H2.5C1.11929 20 0 18.8807 0 17.5Z" fill="#7FB17F"/>
<path d="M8 32.5C8 31.1193 9.11929 30 10.5 30H40.5C41.8807 30 43 31.1193 43 32.5C43 33.8807 41.8807 35 40.5 35H10.5C9.11929 35 8 33.8807 8 32.5Z" fill="#7FB17F"/>
</svg>
