<?xml version="1.0" encoding="UTF-8"?>
<svg id="Livello_2" data-name="Livello 2" xmlns="http://www.w3.org/2000/svg" viewBox="0 0 22.71 25">
  <defs>
    <style>
      .cls-1 {
        fill: #1d1d1b;
      }
    </style>
  </defs>
  <g id="Livello_2-2" data-name="Livello 2">
    <path class="cls-1" d="M22.46,13.04c-.34-.34-.88-.33-1.21,0l-9.01,9.03V.86c0-.47-.38-.86-.86-.86s-.86,.38-.86,.86V22.06L1.47,12.99c-.34-.34-.88-.34-1.21,0-.34,.34-.34,.88,0,1.21l10.52,10.54s0,0,0,0c.04,.04,.08,.08,.13,.11,.01,0,.03,.01,.04,.02,.04,.02,.07,.04,.11,.06,.02,0,.04,.01,.05,.02,.03,.01,.07,.02,.11,.03,.06,.01,.11,.02,.17,.02s.11,0,.17-.02c.04,0,.07-.02,.11-.03,.02,0,.04,0,.05-.02,.04-.02,.07-.04,.11-.06,.01,0,.03-.01,.04-.02,.05-.03,.09-.07,.13-.11,0,0,0,0,0,0l10.47-10.5c.34-.34,.33-.88,0-1.21Z"/>
  </g>
</svg>