<?xml version="1.0" encoding="UTF-8"?>
<svg id="Livello_2" data-name="Livello 2" xmlns="http://www.w3.org/2000/svg" viewBox="0 0 28.57 50">
  <defs>
    <style>
      .cls-1 {
        fill: #1d1d1b;
      }
    </style>
  </defs>
  <g id="Livello_2-2" data-name="Livello 2">
    <path class="cls-1" d="M19.73,16.53c-.3-.28-.47-.67-.46-1.07,.01-1.11,.15-3.37,.92-5.75,.79-2.44,.73-3.85,.64-4.44-.04-.24,0-.49,.09-.71l1.2-2.9-3.63-1.66h-.03c-.04,.21-.65,2.84-4.16,2.93-3.51-.1-4.12-2.72-4.16-2.93h-.03l-3.63,1.66,1.2,2.9c.09,.23,.13,.47,.09,.71-.09,.59-.15,2,.64,4.44,.77,2.38,.9,4.64,.92,5.75,0,.41-.16,.8-.46,1.07C3.69,21.26,0,46.9,0,46.9c.99,.4,2.43,.84,4.18,.91,.58,.02,1.13,0,1.62-.04,1.01-.09,2.02,.22,2.79,.88,.03,.02,.05,.05,.08,.07,.08,.07,.16,.15,.23,.23,.56,.61,1.32,.99,2.14,1.06h.9c.2-.01,.4-.03,.58-.05,.36-.04,.71-.12,1.06-.22,.19-.06,.43-.1,.71-.11,.28,.01,.51,.06,.71,.11,.35,.1,.7,.18,1.06,.22,.18,.02,.38,.04,.58,.05h.9c.82-.07,1.57-.46,2.14-1.06,.07-.08,.15-.15,.23-.23,.03-.02,.05-.05,.08-.07,.77-.66,1.78-.97,2.79-.88,.49,.05,1.04,.07,1.62,.04,1.75-.07,3.19-.5,4.18-.91,0,0-3.69-25.64-8.84-30.37Z"/>
  </g>
</svg>