<?xml version="1.0" encoding="UTF-8"?>
<svg id="Livello_2" data-name="Livello 2" xmlns="http://www.w3.org/2000/svg" viewBox="0 0 31.16 51.17">
  <defs>
    <style>
      .cls-1 {
        fill: #1d1d1b;
      }
    </style>
  </defs>
  <g id="Livello_2-2" data-name="Livello 2">
    <path class="cls-1" d="M25.64,31.49c-1.52-1.53-.61-6.6,1.16-9.79l.26-.47c1.76-3.15,4.43-7.92,.69-10.91-1.03-.82,.3-5.39,1.58-8.37l.21-.48-3.91-1.47-.12,.58c-.01,.06-1.32,6.34-6.17,8.34-.93,.38-1.7,.99-2.24,1.77-.19,.28-.37,.58-.51,.88-.54,1.17-.59,2.28-.53,3.01,.1,1.21,.15,2.19,.16,3.11l.27,16.48c.03,1.92-.29,3.81-.89,5.61-.66-1.8-.98-3.69-.94-5.61l.27-16.48c.01-.91,.07-1.9,.16-3.1,.06-.73,.01-1.85-.53-3.01-.14-.31-.31-.6-.51-.88-.54-.78-1.32-1.39-2.24-1.77C6.98,6.92,5.66,.64,5.65,.58L5.53,0,1.62,1.47l.21,.48c1.28,2.98,2.61,7.55,1.58,8.37-3.74,2.99-1.08,7.76,.69,10.91l.26,.47c1.77,3.19,2.68,8.27,1.17,9.78C.54,36.16,.03,43.72,0,45.93c0,.56,.29,1.07,.77,1.34,4.61,2.56,9.46,3.88,14.41,3.91h.81c4.94-.04,9.79-1.35,14.4-3.91,.49-.27,.78-.78,.77-1.34-.03-2.2-.54-9.76-5.52-14.44Z"/>
  </g>
</svg>