<?xml version="1.0" encoding="UTF-8"?>
<svg id="Livello_2" data-name="Livello 2" xmlns="http://www.w3.org/2000/svg" viewBox="0 0 39.9 50.5">
  <defs>
    <style>
      .cls-1 {
        fill: #1d1d1b;
      }
    </style>
  </defs>
  <g id="Livello_2-2" data-name="Livello 2">
    <path class="cls-1" d="M8.28,27.88h0c-.46-.06-1.33-.26-2.1-1-.82-.78-1.04-1.72-1.1-2.2-.04-.33-.32-.58-.65-.58s-.61,.25-.65,.57c-.06,.46-.26,1.33-1,2.1-.79,.82-1.72,1.04-2.21,1.1-.32,.04-.56,.31-.57,.63-.01,.32,.21,.6,.54,.66,.48,.09,1.4,.36,2.18,1.17,.73,.76,.98,1.63,1.06,2.07,.05,.3,.3,.52,.64,.54,.29,0,.54-.19,.62-.46,.24-.76,.65-1.46,1.21-2.03,.74-.77,1.57-1.14,2.13-1.31,.29-.09,.48-.38,.46-.69-.03-.31-.26-.55-.57-.59Zm-2.74,1.89c-.42,.44-.78,.94-1.06,1.49-.2-.5-.53-1.08-1.04-1.61-.5-.52-1.05-.87-1.55-1.09,.52-.21,1.09-.55,1.61-1.09,.44-.46,.73-.95,.93-1.4,.21,.5,.54,1.04,1.06,1.54,.53,.51,1.11,.82,1.61,1.01-.5,.26-1.05,.63-1.56,1.16ZM22.16,14.48l-6.73,5.66c-.3,.25-.34,.7-.09,1,.14,.17,.34,.25,.54,.25,.16,0,.32-.05,.46-.17l6.73-5.66c.3-.25,.34-.7,.09-1-.25-.3-.7-.34-1-.09Zm-2.95,27.87s-.03,0-.05,0c-1.33,0-2.42,1.08-2.42,2.42s1.08,2.42,2.42,2.42c.02,0,.03,0,.05,0,.02,0,.03,0,.05,0,1.33,0,2.42-1.08,2.42-2.42s-1.08-2.42-2.42-2.42c-.02,0-.03,0-.05,0Zm1.04,2.42c0,.55-.45,1-1,1-.02,0-.03,0-.05,0-.02,0-.03,0-.05,0-.55,0-1-.45-1-1s.45-1,1-1c.02,0,.03,0,.05,0,.02,0,.03,0,.05,0,.55,0,1,.45,1,1Zm1.78-34.89c.3-.25,.34-.7,.09-1s-.7-.34-1-.09l-6.73,5.66c-.3,.25-.34,.7-.09,1,.14,.17,.34,.25,.54,.25,.16,0,.32-.05,.46-.17l6.73-5.66ZM39.33,3.78c-.46-.06-1.33-.26-2.1-1-.82-.79-1.04-1.72-1.1-2.21-.04-.33-.32-.57-.65-.57s-.61,.25-.65,.57c-.06,.46-.26,1.33-1,2.1-.79,.82-1.72,1.04-2.2,1.1-.32,.04-.57,.31-.57,.63-.01,.32,.22,.61,.53,.66,.48,.09,1.4,.36,2.18,1.17,.73,.76,.98,1.63,1.06,2.08,.06,.29,.3,.51,.64,.53,.29,0,.54-.18,.62-.46,.24-.76,.65-1.46,1.21-2.03,.74-.77,1.57-1.14,2.14-1.31,.29-.09,.48-.37,.45-.68-.03-.31-.27-.55-.57-.59Zm-2.74,1.89c-.42,.44-.78,.94-1.06,1.49-.2-.5-.53-1.08-1.04-1.61-.5-.52-1.05-.86-1.55-1.09,.52-.21,1.09-.55,1.61-1.09,.44-.46,.73-.95,.92-1.4,.21,.5,.54,1.04,1.06,1.54,.53,.51,1.11,.82,1.61,1.01-.5,.26-1.05,.63-1.56,1.16Zm-17.34-1.23s-.03,0-.05,0c-.02,0-.03,0-.05,0-5.2,0-9.43,5.14-9.43,11.47s4.23,11.47,9.43,11.47c.02,0,.03,0,.05,0,.02,0,.03,0,.05,0,5.2,0,9.43-5.14,9.43-11.47s-4.23-11.47-9.43-11.47Zm0,21.52s-.03,0-.05,0c-.02,0-.03,0-.05,0-4.42,0-8.01-4.51-8.01-10.05s3.59-10.05,8.01-10.05c.02,0,.03,0,.05,0,.02,0,.03,0,.05,0,4.42,0,8.01,4.51,8.01,10.05s-3.59,10.05-8.01,10.05ZM19.25,.5s-.03,0-.05,0c-.02,0-.03,0-.05,0-3.35,0-6.48,1.62-8.83,4.57-2.31,2.9-3.58,6.75-3.58,10.83s1.27,7.93,3.58,10.83c1.49,1.87,3.3,3.21,5.28,3.94,.68,.25,1.13,.9,1.13,1.62v6.27c0,.59-.31,1.12-.79,1.45-1.52,1.03-2.52,2.77-2.52,4.75,0,3.16,2.57,5.73,5.73,5.73,.02,0,.03,0,.05,0,.02,0,.03,0,.05,0,3.16,0,5.73-2.57,5.73-5.73,0-1.97-1-3.72-2.52-4.75-.49-.33-.79-.86-.79-1.45v-6.27c0-.73,.45-1.37,1.13-1.62,1.98-.73,3.79-2.06,5.28-3.94,2.31-2.9,3.58-6.75,3.58-10.83s-1.27-7.93-3.58-10.83C25.74,2.12,22.6,.5,19.25,.5Zm2.33,29.07c-.78,.21-1.34,.89-1.34,1.69v8.09c0,.64,.33,1.27,.91,1.55,1.43,.7,2.41,2.17,2.41,3.87,0,2.38-1.93,4.31-4.31,4.31-.02,0-.03,0-.05,0-.02,0-.03,0-.05,0-2.38,0-4.31-1.93-4.31-4.31,0-1.7,.98-3.17,2.41-3.87,.58-.28,.91-.91,.91-1.55v-8.09c0-.81-.56-1.48-1.34-1.69-4.95-1.36-8.66-6.97-8.66-13.66,0-7.71,4.93-13.98,10.99-13.98,.02,0,.03,0,.05,0,.02,0,.03,0,.05,0,6.06,0,10.99,6.27,10.99,13.98,0,6.69-3.72,12.3-8.66,13.66Z"/>
  </g>
</svg>