<svg width="27" height="35" viewBox="0 0 27 35" fill="none" xmlns="http://www.w3.org/2000/svg">
<path d="M13.5039 10.8344L16.3854 4.42556L16.5472 4.06778H13.9584H10.4605L13.4884 10.7878L13.5116 10.8344H13.5039ZM6.36157 4.07556L12.0708 10.1422L9.3433 4.07556H6.36157ZM20.677 3.51556L17.6567 0H14.621L17.6182 3.51556H20.6847H20.677ZM10.63 3.51556H16.37L14.806 1.68L13.4961 0.14L11.516 2.46556L10.6223 3.51556H10.63ZM17.6644 4.07556L14.9369 10.1344L20.6384 4.07556H17.6644ZM12.1016 0.326667L12.3867 0H9.3433L6.32305 3.51556H9.38953L12.1016 0.326667ZM16.9325 8.96778V11.13C21.3627 12.5922 24.5678 16.8 24.5678 21.7544C24.5678 27.9144 19.5983 32.9311 13.4961 32.9311C7.39401 32.9311 2.42446 27.9144 2.42446 21.7544C2.42446 16.8 5.62962 12.5922 10.0598 11.13V8.96778C4.48932 10.4922 0.375 15.6489 0.375 21.7544C0.375 29.0578 6.26141 35 13.4961 35C20.7309 35 26.6173 29.0578 26.6173 21.7544C26.6173 15.6489 22.503 10.4922 16.9247 8.96778H16.9325Z" fill="#006400"/>
</svg>
