<?xml version="1.0" encoding="UTF-8"?>
<svg id="Livello_2" data-name="Livello 2" xmlns="http://www.w3.org/2000/svg" viewBox="0 0 45 50">
  <defs>
    <style>
      .cls-1 {
        fill: #1d1d1b;
      }
    </style>
  </defs>
  <g id="Livello_2-2" data-name="Livello 2">
    <path class="cls-1" d="M44.86,28.72s-4.21-4.84-5.73-10.89c.02-.34,.03-.69,.03-1.04,0-4.49-1.75-8.71-4.92-11.88C31.07,1.75,26.85,0,22.36,0S13.66,1.75,10.48,4.92s-4.9,7.35-4.92,11.81c-.16,.69-1.96,8.25-5.42,11.98-.12,.13-.17,.31-.13,.48s.15,.32,.31,.39c.05,.02,3.95,1.72,10.05,2.97-4.3,3.98-6.07,8.21-6.79,11.13-.83,3.38-.49,5.76-.48,5.86,.04,.27,.27,.46,.54,.46H41.51c.3,0,.54-.24,.54-.54,0-.12,0-2.89-.89-6.46-.77-3.07-2.38-7.28-5.7-10.47,3.18-.71,6.25-1.69,9.2-2.96,.16-.07,.28-.21,.32-.38,.04-.17,0-.35-.12-.48ZM22.36,1.08c8.67,0,15.72,7.05,15.72,15.72,0,1.7-.27,3.34-.77,4.87-3.47-3.92-7.27-10.77-7.31-10.84-.1-.17-.28-.28-.48-.28-.2,0-.38,.11-.47,.29-1.35,2.56-5.65,4.98-12.43,7.01-4.23,1.27-8.24,2.01-9.61,2.25-.23-1.06-.35-2.17-.35-3.3C6.65,8.13,13.7,1.08,22.36,1.08Zm-6.4,32.36c2.42,.28,4.83,.42,7.21,.42,1.71,0,3.4-.07,5.07-.22,.4-.03,.8-.07,1.2-.12v6.55H15.96v-6.64Zm6.4-.93c-7.16,0-13.21-4.81-15.1-11.37,1.47-.26,5.44-1.01,9.64-2.26,6.5-1.94,10.73-4.21,12.59-6.74,1.17,2.03,4.4,7.46,7.39,10.67-2.37,5.69-7.98,9.7-14.52,9.7ZM5.84,19.84c.61,3.33,2.2,6.39,4.65,8.83,1.6,1.6,3.48,2.84,5.51,3.68-.6-.07-1.18-.15-1.74-.23-6.38-.93-11.11-2.6-12.81-3.26,2.13-2.61,3.58-6.41,4.39-9.02Zm-1.18,24.05c.6-2.4,1.95-5.75,4.98-9.06v14.09H4.14c-.05-.82-.07-2.68,.51-5.03Zm36.3,5.03h-4.92v-14.17c2.25,2.76,3.45,6.01,4.07,8.49,.64,2.55,.81,4.71,.85,5.68Zm-6.01-15.37v15.37H10.72v-15.2c.31-.3,.64-.61,.99-.91,.76,.14,1.54,.27,2.35,.39,.27,.04,.54,.08,.81,.11v7.32c0,.3,.24,.54,.54,.54h14.57c.3,0,.54-.24,.54-.54v-7.22c1.22-.16,2.44-.35,3.63-.59,.27,.24,.54,.48,.79,.73Zm-6.71-1c2.23-.83,4.27-2.14,6-3.87,2.31-2.31,3.86-5.18,4.54-8.29,1.47,4.06,3.79,7.23,4.79,8.48-5.28,2.17-10.51,3.25-15.33,3.68Z"/>
  </g>
</svg>