<?xml version="1.0" encoding="UTF-8"?>
<svg id="Livello_2" data-name="Livello 2" xmlns="http://www.w3.org/2000/svg" viewBox="0 0 41.91 45">
  <defs>
    <style>
      .cls-1 {
        fill: #009fe3;
      }
    </style>
  </defs>
  <g id="Livello_2-2" data-name="Livello 2">
    <path class="cls-1" d="M41.91,24.37c0-1.95-1.51-3.56-3.42-3.72,.33-.12,.62-.35,.81-.66,.47-.76,.24-1.76-.52-2.24h0c-.32-.2-.69-.27-1.04-.23,1.48-.5,2.54-1.9,2.54-3.54,0-2.06-1.68-3.74-3.74-3.74-.39,0-.77,.06-1.12,.17,.44-.75,.2-1.73-.54-2.19-.37-.23-.8-.3-1.23-.2-.13,.03-.25,.08-.37,.14,.32-.55,.5-1.19,.5-1.87,0-2.06-1.68-3.74-3.74-3.74-1.25,0-2.35,.62-3.03,1.56,0-.12-.01-.24-.04-.36-.1-.42-.35-.78-.72-1.01-.37-.23-.8-.3-1.23-.2-.42,.1-.78,.35-1.01,.72-.06,.09-.11,.19-.14,.29-.1-1.97-1.74-3.54-3.73-3.54s-3.67,1.61-3.73,3.61c-.11-.37-.35-.7-.7-.92h0c-.76-.47-1.76-.24-2.24,.52-.31,.49-.32,1.09-.08,1.57-.68-.96-1.79-1.59-3.05-1.59-2.06,0-3.74,1.68-3.74,3.74,0,1.02,.41,1.95,1.08,2.62-.34-.17-.73-.22-1.1-.14-.42,.1-.78,.35-1.01,.72-.37,.6-.31,1.34,.11,1.87-.49-.24-1.04-.37-1.62-.37-2.06,0-3.74,1.68-3.74,3.74,0,1.75,1.21,3.22,2.83,3.63-.35,.12-.64,.35-.84,.67-.47,.76-.24,1.76,.52,2.24,.11,.07,.23,.13,.36,.17-1.81,.26-3.2,1.82-3.2,3.7,0,2.06,1.68,3.74,3.74,3.74,.14,0,.28,0,.41-.02-.07,.08-.14,.16-.2,.26-.47,.76-.24,1.76,.52,2.24,.27,.17,.56,.25,.86,.25,.13,0,.25-.02,.38-.04-.77,.69-1.26,1.68-1.26,2.79,0,2.06,1.68,3.74,3.74,3.74,.82,0,1.58-.27,2.2-.72-.17,.34-.22,.72-.13,1.1,.1,.42,.35,.78,.72,1.01,.27,.17,.56,.25,.86,.25,.45,0,.89-.19,1.2-.53-.16,.41-.25,.86-.25,1.33,0,2.06,1.68,3.74,3.74,3.74,1.85,0,3.39-1.35,3.69-3.12,0,.01,0,.02,0,.04,.1,.42,.35,.78,.72,1.01,.27,.17,.56,.25,.86,.25,.54,0,1.07-.27,1.38-.76,.14-.22,.22-.46,.24-.71,.16,1.91,1.77,3.42,3.72,3.42,2.06,0,3.74-1.68,3.74-3.74,0-.78-.24-1.5-.65-2.1,.07,.07,.16,.13,.25,.19,.27,.17,.56,.25,.86,.25,.54,0,1.07-.27,1.38-.76,.3-.49,.32-1.08,.08-1.56,.54,.3,1.16,.47,1.82,.47,2.06,0,3.74-1.68,3.74-3.74,0-1.09-.47-2.08-1.22-2.76,.05,0,.11,0,.16,0,.54,0,1.07-.27,1.38-.76,.23-.37,.3-.8,.2-1.23-.1-.42-.35-.78-.72-1.01-.12-.08-.25-.13-.38-.17,.14,.02,.28,.02,.42,.02,2.06,0,3.74-1.68,3.74-3.74Zm-.32,0c0,1.88-1.53,3.41-3.41,3.41s-3.41-1.53-3.41-3.41,1.53-3.41,3.41-3.41,3.41,1.53,3.41,3.41Zm-3.66-6.22c.18,0,.35,.05,.51,.15,.46,.28,.6,.89,.31,1.34-.28,.46-.89,.6-1.34,.31-.22-.14-.38-.35-.43-.61s-.02-.51,.12-.74c.18-.3,.5-.46,.83-.46Zm2.03-4.18c0,1.88-1.53,3.41-3.41,3.41s-3.41-1.53-3.41-3.41,1.53-3.41,3.41-3.41,3.41,1.53,3.41,3.41Zm-6.16-5.33c.07-.02,.15-.03,.22-.03,.18,0,.36,.05,.51,.15,.46,.28,.6,.89,.31,1.34-.28,.46-.89,.6-1.34,.31-.46-.28-.6-.89-.31-1.34,.14-.22,.35-.38,.61-.43Zm-3.75-5.77c1.88,0,3.41,1.53,3.41,3.41s-1.53,3.41-3.41,3.41-3.41-1.53-3.41-3.41,1.53-3.41,3.41-3.41Zm-5.48,.73c.14-.22,.35-.37,.61-.43,.07-.02,.15-.03,.22-.03,.18,0,.36,.05,.51,.15h0c.22,.14,.37,.35,.43,.61s.02,.51-.12,.74c-.14,.22-.35,.37-.61,.43-.25,.06-.51,.02-.74-.12-.22-.14-.37-.35-.43-.61s-.02-.51,.12-.74ZM20.14,.32c1.88,0,3.41,1.53,3.41,3.41s-1.53,3.41-3.41,3.41-3.41-1.53-3.41-3.41,1.53-3.41,3.41-3.41Zm-6.12,3.23c.18-.3,.5-.46,.83-.46,.18,0,.35,.05,.51,.15,.46,.28,.6,.89,.31,1.34-.28,.46-.89,.6-1.34,.31-.46-.28-.6-.89-.31-1.34Zm-3.69-.04c1.88,0,3.41,1.53,3.41,3.41s-1.53,3.41-3.41,3.41-3.41-1.53-3.41-3.41,1.53-3.41,3.41-3.41Zm-4.22,6.97c.14-.22,.35-.37,.61-.43,.07-.02,.15-.03,.22-.03,.18,0,.36,.05,.51,.15,.22,.14,.37,.35,.43,.61s.02,.51-.12,.74c-.14,.22-.35,.37-.61,.43-.25,.06-.52,.02-.74-.12-.22-.14-.37-.35-.43-.61-.06-.25-.02-.51,.12-.74ZM.65,15.38c0-1.88,1.53-3.41,3.41-3.41s3.41,1.53,3.41,3.41-1.53,3.41-3.41,3.41-3.41-1.53-3.41-3.41Zm2.1,5.38c-.06-.25-.02-.51,.12-.74,.14-.22,.35-.37,.61-.43,.07-.02,.15-.03,.22-.03,.18,0,.36,.05,.51,.15,.22,.14,.37,.35,.43,.61,.06,.25,.02,.51-.12,.74-.14,.22-.35,.37-.61,.43-.25,.06-.52,.02-.74-.12-.22-.14-.37-.35-.43-.61ZM.32,25.78c0-1.88,1.53-3.41,3.41-3.41s3.41,1.53,3.41,3.41-1.53,3.41-3.41,3.41-3.41-1.53-3.41-3.41Zm4.49,5.66c-.46-.28-.6-.89-.31-1.34,.18-.3,.5-.46,.83-.46,.18,0,.35,.05,.51,.15,.46,.28,.6,.89,.31,1.34-.28,.46-.89,.6-1.34,.31Zm-.04,3.55c0-1.88,1.53-3.41,3.41-3.41s3.41,1.53,3.41,3.41-1.53,3.41-3.41,3.41-3.41-1.53-3.41-3.41Zm7.89,4.26c-.14,.22-.35,.37-.61,.43-.25,.06-.51,.02-.74-.12-.22-.14-.37-.35-.43-.61s-.02-.51,.12-.74c.14-.22,.35-.37,.61-.43,.07-.02,.15-.03,.22-.03,.18,0,.36,.05,.51,.15h0c.22,.14,.37,.35,.43,.61s.02,.51-.12,.74Zm3.86,5.32c-1.88,0-3.41-1.53-3.41-3.41s1.53-3.41,3.41-3.41,3.41,1.53,3.41,3.41-1.53,3.41-3.41,3.41Zm6.1-2.61c-.14,.22-.35,.37-.61,.43-.25,.06-.51,.02-.74-.12-.22-.14-.37-.35-.43-.61s-.02-.51,.12-.74c.18-.3,.5-.46,.83-.46,.18,0,.35,.05,.51,.15h0c.22,.14,.37,.35,.43,.61s.02,.51-.12,.74Zm4.51,2.72c-1.88,0-3.41-1.53-3.41-3.41s1.53-3.41,3.41-3.41,3.41,1.53,3.41,3.41-1.53,3.41-3.41,3.41Zm5.02-6.19c-.28,.46-.89,.6-1.34,.31-.46-.28-.6-.89-.31-1.34,.18-.3,.5-.46,.83-.46,.18,0,.35,.05,.51,.15,.46,.28,.6,.89,.31,1.34Zm5.87-4.48c0,1.88-1.53,3.41-3.41,3.41s-3.41-1.53-3.41-3.41,1.53-3.41,3.41-3.41,3.41,1.53,3.41,3.41Zm-.22-5.2c.22,.14,.37,.35,.43,.61s.02,.51-.12,.74c-.14,.22-.35,.37-.61,.43-.25,.06-.51,.02-.74-.12-.22-.14-.37-.35-.43-.61s-.02-.51,.12-.74c.14-.22,.35-.37,.61-.43,.07-.02,.15-.03,.22-.03,.18,0,.36,.05,.51,.15h0Zm-1.89-.03c-.23,.37-.3,.8-.2,1.23,.04,.18,.12,.36,.22,.51-.41-.15-.85-.24-1.31-.24-2.06,0-3.74,1.68-3.74,3.74,0,.91,.33,1.74,.87,2.39-.67-.18-1.41,.09-1.79,.71-.32,.52-.32,1.15-.04,1.65-.68-.76-1.68-1.24-2.78-1.24-2.04,0-3.7,1.64-3.73,3.67,0-.04-.01-.08-.02-.12-.1-.42-.35-.78-.72-1.01-.37-.23-.8-.3-1.23-.2-.42,.1-.78,.35-1.01,.72-.07,.11-.13,.24-.17,.36-.11-1.96-1.74-3.52-3.73-3.52-1.29,0-2.43,.66-3.11,1.66,.05-.23,.05-.48,0-.72-.1-.42-.35-.78-.72-1.01-.49-.3-1.07-.32-1.55-.09,.49-.63,.78-1.42,.78-2.28,0-2.06-1.68-3.74-3.74-3.74-.55,0-1.08,.12-1.55,.34,.03-.04,.06-.08,.08-.12,.47-.76,.24-1.76-.52-2.24h0c-.18-.11-.38-.19-.58-.22,1.11-.65,1.87-1.85,1.87-3.23,0-1.89-1.42-3.46-3.25-3.7,.35-.12,.65-.36,.85-.68,.47-.76,.24-1.76-.52-2.24h0s-.07-.04-.11-.06c1.88-.2,3.35-1.79,3.35-3.72,0-1.12-.49-2.12-1.28-2.81,.14,.04,.28,.06,.42,.06,.12,0,.25-.01,.37-.04,.42-.1,.78-.35,1.01-.72,.37-.59,.31-1.32-.09-1.85,.6,.41,1.32,.65,2.11,.65,2.06,0,3.74-1.68,3.74-3.74,0-.67-.18-1.3-.49-1.84,.11,.14,.24,.26,.4,.36,.27,.17,.56,.25,.86,.25,.54,0,1.07-.27,1.38-.76,.12-.19,.19-.39,.22-.59,.29,1.77,1.83,3.13,3.69,3.13s3.33-1.3,3.67-3.01c0,0,0,.02,0,.02,.1,.42,.35,.78,.72,1.01,.26,.16,.56,.25,.86,.25,.12,0,.25-.01,.37-.04,.25-.06,.48-.17,.67-.33-.07,.29-.11,.6-.11,.91,0,2.06,1.68,3.74,3.74,3.74,.92,0,1.77-.34,2.42-.89-.21,.68,.06,1.45,.69,1.85,.27,.17,.56,.25,.86,.25,0,0,0,0,0,0-.75,.68-1.22,1.67-1.22,2.75,0,2.06,1.68,3.74,3.74,3.74,.25,0,.49-.02,.73-.07-.29,.13-.55,.34-.73,.63-.23,.37-.3,.8-.2,1.23s.35,.78,.72,1.01c.14,.09,.29,.15,.44,.19-1.74,.32-3.07,1.84-3.07,3.68s1.24,3.26,2.9,3.64c-.56-.02-1.12,.25-1.44,.76Z"/>
  </g>
</svg>