<?xml version="1.0" encoding="UTF-8"?>
<svg id="Livello_2" data-name="Livello 2" xmlns="http://www.w3.org/2000/svg" viewBox="0 0 25 41.66">
  <defs>
    <style>
      .cls-1 {
        fill: #009fe3;
      }
    </style>
  </defs>
  <g id="Livello_2-2" data-name="Livello 2">
    <path class="cls-1" d="M12.88,20.66c1.01-.18,1.79-1.06,1.79-2.13,0-1.19-.97-2.16-2.16-2.16s-2.16,.97-2.16,2.16c0,1.06,.77,1.95,1.79,2.13L0,41.66H25L12.88,20.66Zm-1.77-2.13c0-.77,.62-1.39,1.39-1.39s1.39,.62,1.39,1.39-.62,1.39-1.39,1.39-1.39-.62-1.39-1.39Zm1.39,4.57l9.82,17.02H2.68L12.5,23.1Zm2.2-6.4c.4,.14,.87,.11,1.3-.1,.43-.21,.73-.57,.85-.95,.12-.39,.06-.8-.17-1.14-.23-.35-.59-.57-.96-.66-.38-.1-.77-.07-1.13,.11-.36,.17-.61,.47-.75,.81-.14,.35-.16,.75,0,1.14,.15,.38,.47,.67,.86,.8Zm5.35-5.13c.26,.22,.58,.32,.91,.28,.08,0,.17-.02,.24-.05,.08-.03,.15-.06,.23-.11,.15-.09,.28-.2,.4-.35,.12-.14,.18-.31,.22-.48,.04-.17,.04-.33,.02-.49-.05-.31-.25-.6-.54-.78-.29-.18-.62-.22-.92-.17-.15,.03-.3,.08-.43,.16-.13,.08-.24,.18-.34,.3-.1,.12-.16,.26-.2,.41-.02,.07-.03,.15-.03,.22,0,.07,0,.15,0,.22,.03,.3,.17,.6,.43,.82Zm-1.78,2.96c.19,.02,.38,0,.57-.05,.19-.06,.37-.15,.53-.29,.17-.13,.29-.3,.38-.47,.09-.17,.14-.35,.15-.53,.02-.37-.12-.72-.4-.98-.28-.26-.64-.39-.98-.4-.17,0-.35,.01-.51,.07-.17,.05-.31,.14-.45,.25-.14,.11-.25,.24-.32,.39-.08,.15-.13,.31-.15,.47-.04,.34,.03,.7,.26,1,.22,.31,.56,.49,.93,.53Zm3.69-5.65c.26,.14,.56,.17,.82,.08,.13-.05,.26-.12,.37-.22,.11-.1,.21-.22,.27-.37,.13-.29,.14-.61,.02-.88-.11-.27-.32-.48-.59-.59-.28-.11-.57-.09-.81,0-.24,.1-.45,.28-.56,.54-.05,.13-.08,.26-.09,.39,0,.13,.02,.27,.06,.4,.09,.26,.26,.49,.52,.64Zm1.9-7.6c.33,0,.6-.29,.57-.66-.02-.37-.32-.64-.65-.61-.33,.03-.57,.32-.55,.66,.02,.33,.29,.61,.62,.61Zm-.73,4.87c.24,.08,.49,.05,.7-.07,.2-.12,.37-.33,.43-.6,.13-.54-.21-1.06-.7-1.16-.5-.1-.96,.21-1.07,.68-.05,.24-.02,.48,.1,.68,.12,.21,.3,.38,.54,.46Zm.58-2.57c.41,.07,.79-.25,.83-.71,.03-.46-.3-.85-.71-.87-.42-.02-.75,.3-.79,.71-.03,.41,.26,.8,.67,.87ZM1.28,3.58c.41-.07,.7-.45,.67-.87-.03-.41-.37-.73-.79-.71-.41,.02-.75,.41-.71,.87,.03,.46,.41,.78,.83,.71Zm.16,.75c-.49,.1-.83,.62-.7,1.16,.06,.27,.23,.48,.43,.6,.2,.12,.46,.15,.7,.07,.24-.08,.42-.25,.54-.46,.12-.21,.15-.45,.1-.68-.11-.47-.57-.78-1.07-.68Zm.12,3.16c-.11,.27-.11,.58,.02,.88,.06,.15,.16,.27,.27,.37,.11,.1,.24,.17,.37,.22,.26,.09,.57,.06,.82-.08,.26-.15,.43-.38,.52-.64,.04-.13,.07-.26,.06-.4,0-.13-.04-.26-.09-.39-.11-.25-.32-.43-.56-.54-.24-.1-.54-.12-.81,0-.28,.11-.49,.32-.59,.59ZM1.13,1.27c.33,0,.6-.28,.62-.61C1.78,.32,1.54,.03,1.21,0c-.33-.03-.63,.25-.65,.61-.02,.37,.24,.66,.57,.66Zm7.86,15.32c.43,.21,.91,.23,1.3,.1,.4-.13,.71-.42,.86-.8,.15-.39,.13-.79,0-1.14-.14-.35-.39-.64-.75-.81-.35-.17-.75-.2-1.13-.11-.37,.09-.73,.32-.96,.66-.23,.35-.29,.75-.17,1.14,.12,.38,.41,.74,.85,.95ZM2.93,10.37c-.03,.16-.02,.33,.02,.49,.04,.17,.1,.33,.22,.48,.11,.15,.25,.26,.4,.35,.07,.04,.15,.08,.23,.11,.08,.03,.16,.04,.24,.05,.33,.03,.66-.06,.91-.28,.26-.22,.4-.53,.43-.82,0-.08,0-.15,0-.22,0-.08-.01-.15-.03-.22-.04-.15-.1-.28-.2-.41-.1-.12-.21-.23-.34-.3-.13-.08-.27-.13-.43-.16-.31-.05-.63,0-.92,.17-.29,.18-.49,.46-.54,.78Zm2.32,3.34c.09,.17,.21,.34,.38,.47,.16,.13,.35,.23,.53,.29,.19,.06,.39,.07,.57,.05,.37-.04,.71-.22,.93-.53,.22-.3,.3-.67,.26-1-.02-.17-.07-.33-.15-.47-.08-.15-.18-.28-.32-.39-.14-.11-.29-.2-.45-.25-.16-.05-.34-.07-.51-.07-.34,0-.7,.14-.98,.4-.28,.26-.41,.61-.4,.98,0,.18,.06,.36,.15,.53Z"/>
  </g>
</svg>