<?xml version="1.0" encoding="UTF-8"?>
<svg id="Livello_2" data-name="Livello 2" xmlns="http://www.w3.org/2000/svg" viewBox="0 0 120.19 77">
  <defs>
    <style>
      .cls-1 {
        fill: #1d1d1b;
      }
    </style>
  </defs>
  <g id="Livello_2-2" data-name="Livello 2">
    <path class="cls-1" d="M101.21,77h-36.87c-.55,0-1-.45-1-1V1c0-.55,.45-1,1-1h36.87c4.11,0,7.46,3.35,7.46,7.46v62.08c0,4.11-3.35,7.46-7.46,7.46Zm-35.87-2h35.87c3.01,0,5.46-2.45,5.46-5.46V7.46c0-3.01-2.45-5.46-5.46-5.46h-35.87V75Zm-10.93,1.57H6.61c-.55,0-1-.45-1-1v-15.27h-.94c-2.58,0-4.67-2.1-4.67-4.67s2.1-4.67,4.67-4.67H23.39v-2.32h-1.23c-.55,0-1-.45-1-1v-11.38h-5.26c-2.97,0-5.4-2.42-5.4-5.4V5.83c0-3.21,2.61-5.83,5.83-5.83h9.42c.55,0,1,.45,1,1V20.86h0c.16,.37,.11,.78-.14,1.08-.61,.73-.95,1.65-.95,2.6,0,2.23,1.81,4.04,4.04,4.04s4.04-1.81,4.04-4.04c0-.95-.34-1.87-.95-2.6-.25-.3-.31-.71-.14-1.07,0,0,0,0,0-.01V1c0-.55,.45-1,1-1h25.62c.55,0,1,.45,1,1V25.76c0,.55-.45,1-1,1h-15.4l-.08,.13c-1.05,1.23-3.92,4.6-6.51,7.63-.94,1.11-2.32,1.74-3.77,1.74h-4.76v11.38c0,.55-.45,1-1,1h-1.23v2.32h27.86c.55,0,1,.45,1,1v23.61c0,.55-.45,1-1,1Zm-46.79-2H53.41v-21.61H4.67c-1.47,0-2.67,1.2-2.67,2.67s1.2,2.67,2.67,2.67h1.94c.55,0,1,.45,1,1v15.27Zm15.55-27.93h1.23c.21,0,.41,.07,.58,.18,.16-.12,.36-.18,.58-.18h1.23v-11.38c0-.55,.45-1,1-1h5.76c.87,0,1.69-.38,2.25-1.04,2.59-3.03,5.46-6.4,6.51-7.63l.13-.15c.37-.43,.9-.68,1.47-.68h14.4V2h-23.62V21.09c.7,1.01,1.08,2.21,1.08,3.44,0,3.33-2.71,6.04-6.04,6.04s-6.04-2.71-6.04-6.04c0-1.23,.38-2.44,1.08-3.44V2h-8.42c-2.11,0-3.83,1.72-3.83,3.83V30.87c0,1.87,1.52,3.4,3.4,3.4h6.26c.55,0,1,.45,1,1v11.38Zm62.84,19.35c-3.73,0-6.76-3.03-6.76-6.76s3.03-6.76,6.76-6.76,6.76,3.03,6.76,6.76-3.03,6.76-6.76,6.76Zm0-11.52c-2.62,0-4.76,2.13-4.76,4.76s2.13,4.76,4.76,4.76,4.76-2.13,4.76-4.76-2.13-4.76-4.76-4.76Zm0,6.92c-1.15,0-2.09-.94-2.09-2.09s.94-2.09,2.09-2.09,2.09,.94,2.09,2.09-.94,2.09-2.09,2.09Zm0-2.18s-.09,.04-.09,.09c0,.1,.18,.1,.18,0,0-.05-.04-.09-.09-.09Zm0-8.34c-3.73,0-6.76-3.03-6.76-6.76s3.03-6.76,6.76-6.76,6.76,3.03,6.76,6.76-3.03,6.76-6.76,6.76Zm0-11.52c-2.62,0-4.76,2.13-4.76,4.76s2.13,4.76,4.76,4.76,4.76-2.13,4.76-4.76-2.13-4.76-4.76-4.76Zm0,6.92c-1.15,0-2.09-.94-2.09-2.09s.94-2.09,2.09-2.09,2.09,.94,2.09,2.09-.94,2.09-2.09,2.09Zm0-2.18s-.09,.04-.09,.09c0,.1,.18,.1,.18,0,0-.05-.04-.09-.09-.09Zm33.18-3.52h-6.48c-.55,0-1-.45-1-1V11.65c0-.55,.45-1,1-1h6.48c.55,0,1,.45,1,1v27.93c0,.55-.45,1-1,1Zm-5.48-2h4.48V12.65h-4.48v25.93Zm-27.7-5.27c-6.43,0-11.65-5.23-11.65-11.65s5.23-11.65,11.65-11.65,11.65,5.23,11.65,11.65-5.23,11.65-11.65,11.65Zm0-21.31c-5.32,0-9.65,4.33-9.65,9.65s4.33,9.65,9.65,9.65,9.65-4.33,9.65-9.65-4.33-9.65-9.65-9.65Zm0,15.04c-3.01,0-5.46-2.45-5.46-5.46s2.45-5.46,5.46-5.46,5.46,2.45,5.46,5.46-2.45,5.46-5.46,5.46Zm0-8.92c-1.91,0-3.46,1.55-3.46,3.46s1.55,3.46,3.46,3.46,3.46-1.55,3.46-3.46-1.55-3.46-3.46-3.46Z"/>
  </g>
</svg>