<?xml version="1.0" encoding="UTF-8"?>
<svg id="Livello_2" data-name="Livello 2" xmlns="http://www.w3.org/2000/svg" viewBox="0 0 25 45.04">
  <defs>
    <style>
      .cls-1 {
        fill: #009fe3;
      }
    </style>
  </defs>
  <g id="Livello_2-2" data-name="Livello 2">
    <path class="cls-1" d="M11.28,19.04v-2.26c-3.46-.58-6.1-3.6-6.1-7.22,0-4.04,3.28-7.32,7.32-7.32s7.32,3.28,7.32,7.32c0,3.62-2.64,6.64-6.1,7.22v2.26c4.7-.6,8.34-4.62,8.34-9.48C22.06,4.29,17.77,0,12.5,0S2.94,4.29,2.94,9.56c0,4.86,3.64,8.88,8.34,9.48Zm1.83,1.62v-5.6c0-.34-.27-.61-.61-.61s-.61,.27-.61,.61v5.6L0,32.54l12.5,12.5,12.5-12.5-11.89-11.89ZM2.32,32.54l10.18-10.18,10.18,10.18-10.18,10.18L2.32,32.54Zm10.18-7.31l-7.31,7.31,7.31,7.31,7.31-7.31-7.31-7.31Z"/>
  </g>
</svg>