<svg width="36" height="35" viewBox="0 0 36 35" fill="none" xmlns="http://www.w3.org/2000/svg">
<path d="M7.98893 35H0.732681V11.6325H7.98893V35ZM4.35643 8.445C2.03643 8.445 0.153931 6.5225 0.153931 4.2025C0.153931 1.8825 2.03518 0 4.35643 0C6.67768 0 8.55893 1.88125 8.55893 4.2025C8.55893 6.5225 6.67643 8.445 4.35643 8.445ZM35.1464 35H27.9064V23.625C27.9064 20.9137 27.8514 17.4375 24.1339 17.4375C20.3614 17.4375 19.7827 20.3825 19.7827 23.43V35H12.5339V11.6325H19.4927V14.82H19.5939C20.5627 12.9838 22.9289 11.0462 26.4589 11.0462C33.8027 11.0462 35.1527 15.8825 35.1527 22.1638V35H35.1464Z" fill="#DFDFDF"/>
</svg>
