<svg width="32" height="35" viewBox="0 0 32 35" fill="none" xmlns="http://www.w3.org/2000/svg">
<path d="M16.7179 0.0295328C18.6266 0 20.5243 0.0175009 22.4199 0C22.5347 2.23246 23.3376 4.50649 24.9717 6.08486C26.6026 7.7026 28.9094 8.44311 31.1539 8.69359V14.5662C29.0505 14.4973 26.9373 14.0598 25.0286 13.1541C24.1973 12.7779 23.4229 12.2933 22.6649 11.7978C22.655 16.0593 22.6824 20.3153 22.6375 24.5593C22.5238 26.5981 21.8511 28.6272 20.6654 30.3072C18.7578 33.1041 15.4469 34.9275 12.0462 34.9844C9.96031 35.1036 7.8766 34.5348 6.09917 33.4869C3.15354 31.75 1.08077 28.5703 0.778881 25.1576C0.74388 24.428 0.731848 23.6995 0.76138 22.9875C1.02389 20.2125 2.39662 17.5578 4.52736 15.7519C6.94249 13.6485 10.3256 12.6466 13.4933 13.2395C13.5228 15.3997 13.4364 17.5578 13.4364 19.7181C11.9893 19.2499 10.2983 19.3812 9.03385 20.2595C8.11068 20.8578 7.40955 21.7744 7.04422 22.8114C6.74232 23.5508 6.82874 24.3722 6.84624 25.1576C7.19297 27.5508 9.49435 29.5624 11.951 29.3447C13.5797 29.3272 15.1406 28.3821 15.9894 26.9985C16.2639 26.5139 16.5713 26.0184 16.5877 25.4485C16.731 22.8398 16.6741 20.242 16.6916 17.6333C16.7036 11.7541 16.6741 5.89125 16.7189 0.0306266L16.7179 0.0295328Z" fill="#DFDFDF"/>
</svg>
